<?xml version="1.0" encoding="utf-8"?>
<!-- Generator: Adobe Illustrator 28.0.0, SVG Export Plug-In . SVG Version: 6.00 Build 0)  -->
<svg version="1.1" id="图层_1" xmlns="http://www.w3.org/2000/svg" xmlns:xlink="http://www.w3.org/1999/xlink" x="0px" y="0px"
	 viewBox="0 0 1920 1080" style="enable-background:new 0 0 1920 1080;" xml:space="preserve">
<style type="text/css">
	.st0{fill:#002C76;}
	.st1{clip-path:url(#SVGID_00000075142284608812904250000000581902479737169810_);fill:#346C9C;}
	.st2{fill:#ED556A;}
</style>
<g>
	<path class="st0" d="M1205.29,505.44c0-132.54-107.44-239.97-239.95-239.97c-132.56,0-239.99,107.43-239.99,239.97
		c0,16.66,1.71,32.95,4.93,48.67c-13.47,2.42-36.76,6.86-51.54,11.03l69.88,127.17c0,0,22.45-8.32,54.41-10.11
		c42.73,39.21,99.72,63.22,162.31,63.22c62.48,0,119.37-23.88,162.04-62.99c1.66-0.1,25-0.57,56.91,9.96L1253,565.27
		c0,0-18.08-6.12-52.75-10.66C1203.57,538.73,1205.29,522.28,1205.29,505.44z M1025.63,378.82h75.85v41.35
		c-8.32-7.12-22.09-11.73-37.68-11.73c-15.89,0-29.91,4.77-38.17,12.15V378.82z M1025.63,442.9h75.85v41.35
		c-8.32-7.14-22.09-11.76-37.68-11.76c-15.89,0-29.91,4.82-38.17,12.12V442.9z M1064.04,505.46c0,0-2.46,26.62-35.48,27.64h-125.9
		c0,0-26.84,3.44-37.66-27.64H1064.04z M926.55,318.23h75.91v41.32c-8.34-7.07-22.13-11.76-37.72-11.76
		c-15.88,0-29.89,4.82-38.19,12.17V318.23z M926.55,378.82h75.91v41.35c-8.34-7.12-22.13-11.73-37.72-11.73
		c-15.88,0-29.89,4.77-38.19,12.15V378.82z M926.55,442.9h75.91v41.35c-8.34-7.14-22.13-11.76-37.72-11.76
		c-15.88,0-29.89,4.82-38.19,12.12V442.9z M827.54,378.82h75.89v41.35c-8.34-7.12-22.13-11.73-37.72-11.73
		c-15.88,0-29.89,4.77-38.17,12.15V378.82z M827.54,442.9h75.89v41.35c-8.34-7.14-22.13-11.76-37.72-11.76
		c-15.88,0-29.89,4.82-38.17,12.12V442.9z M1241.12,572.3l-60.73,109.31c-112.56-30.37-194.77,12.62-194.77,12.62h-40.25
		c-95.86-44-192.37-13.29-192.37-13.29l-58.06-109.36c202.03-42.6,267.58,13.4,267.58,13.4h6.44
		C1064.36,526.84,1241.12,572.3,1241.12,572.3z"/>
	<path class="st0" d="M810.62,634.77c-0.99-0.1-1.99,0.52-3.16,0.7c-3.78,0.6-7.56,0.94-11.81,1.85c-1.88,0.36-3.96,1.2-6.11,0.86
		c-1.36-2.32-3-8-2.07-11.76c0.48-1.98,1.54-3.94,1.9-6.23c0.76-4.41-0.69-9,0.76-12.85c0.5-1.25,1.7-2.08,2.4-3.1
		c0.47-0.76,2.56-7.38,2.22-8.32c-0.34-0.68-0.7-1.25-1.06-1.88c-1-0.63-2.02-0.86-3.82-0.76c-6.02,3.08-7.12,10.03-8.13,17.91
		c0.18,2.16,0.36,4.33,0.55,6.52c-0.25,3.47-0.47,6.96-0.68,10.48c0.64,2.89,1.24,6.49,1.39,10.5c-1.07,0.81-2.28,0.7-3.92,0.76
		c-1.54,0.16-3.13,0.26-4.68,0.37c-4.25-0.65-5.8-2.92-8.95,1.51c-0.86,1.23-2.71,2.42-1.59,5.19c0.8,1.93,6.06,3.73,8.75,3.94
		c12.24,1.09,22.98-2.32,32.9-5.06c1.63-0.39,3.27-0.76,4.9-1.09c1.17-0.6,2.57-1.98,3.75-2.63c1-0.55,2.51-0.11,3.02-1.2
		C818.65,636.65,813.25,635.11,810.62,634.77z"/>
	<path class="st0" d="M971.6,624.94c-0.86-2.45-1.78-4.95-2.66-7.4c-0.68-2.89,0.21-6.08-1.09-8.03c-1.62-0.31-2.76,0-4.2,0.39
		c-1.12-0.15-2.29-0.26-3.45-0.39c-2.83,2.37-9.4,2.55-14.7,2.61c-0.12-0.21-0.17-0.42-0.29-0.6c1.7-3.6,8.73-9.46,12.39-11.32
		c1.44-0.73,3.4-0.13,4.9-0.62c1.36-0.5,3.73-2.79,2.84-4.67c-0.66-1.23-2.92-1.67-4.72-1.12c-0.82,0.52-1.63,1.02-2.44,1.46
		c-3.52,0.16-7.05,0.29-10.56,0.44c-1.56,0.03-3.75,0.91-4.95,0.26c-0.76-0.6-0.89-1.8-1.66-2.43c-0.91-0.1-1.82-0.15-2.72-0.15
		c-1.6,0.78-2.65,0.94-3.65,2.32c-0.22,1.98-0.43,4.01-0.68,6.07c4.65,2.76,9.69,0.42,15.16-0.26c0.95-0.03,1.89-0.1,2.84-0.16
		c0.08,0,0.16,0,0.22,0c-0.25,1.96-7.29,6.73-9.01,8.11c-4.02,3.26-7.82,7.64-10.75,11.91c-1.08,2.01-2.19,4.02-3.27,6
		c-0.99,0.37-1.97,0.68-2.94,1.09c-3.48,1.46-8.71,3.29-10.66,6.31c-0.22,0.02-0.4,0.02-0.61,0.02c-2.03-3.68-1.58-14.47,0.37-17.26
		c0.87-1.25,3.32-0.89,3.88-2.43c0.74-2.08-0.53-4.9-0.78-6.44c0.17-0.21,0.39-0.44,0.57-0.6c5.49,0.68,6.14-0.55,7-5.4
		c0.14-0.83,0.55-1.77,0.06-2.74c-0.51-0.89-5.93-3.31-7.38-2.84c-1,0.55-3.68,5.24-3.22,7.27c0.26,1.2,1.27,2.06,0.69,3.52
		c-0.82,2.19-3.43,2.95-3.9,5.42c-0.25,1.22,0.53,1.75,0.82,2.45c0.48,1.33,0.25,3.08-0.03,4.41c-1.52,7.27-4.2,14.36-2.42,23.05
		c0.42,2.08-0.77,4.38,0.04,6c0.23,0.49,0.49,0.68,1.01,0.83c0.81,0.34,1.75-0.1,2.33-0.29c5.06-1.67,1.66-6.31,4.03-9.75
		c0.55-0.94,4.99-3.47,6.8-3.05c0.42,3-1.38,7.69,0.91,10.22c1.3,1.46,3.86,1.3,5.98,1.85c4.94,1.23,11.5,1.31,16.52-0.34
		c2.22-0.83,4.46-1.62,6.72-2.4c2.4-0.18,4.82-0.42,7.25-0.6c1.93-1.2,3.09-5.24,0.91-6.8c-0.03-0.23-0.03-0.5-0.03-0.7
		c1.17-0.81,2.36-1.59,3.51-2.37c0.91-0.86,1.16-2.14,2.37-2.79c3.18-1.02,5.44,3.23,8.6-1.33
		C980.53,627.5,974.52,625.44,971.6,624.94z M958.75,636.91c-2.02-0.26-2.54-2.06-4.51-2.37c-0.14,0.13-0.3,0.23-0.46,0.29
		c-0.42,2.37,0.25,3.02,0.74,4.8c-0.05,0.1-0.09,0.18-0.1,0.21c-3.44,1.85-19.99,0.89-22.97-0.44c-0.23-1.04,0.11-2.5,0.77-3.08
		c0.69-0.57,7.51-2.76,8.45-2.48c0.13,0.05,0.25,0.05,0.36,0.1c0.38,2.37-0.13,3.31,1,5.27c9.48,2.24,5.85-4.28,9.44-6.65
		c2.62,0.08,7.52-0.73,10.01,0.23C962.95,633.8,959.47,636.41,958.75,636.91z M964.18,624.29c-1.54,0.94-10.91,0.65-13.05,0
		c-0.25-0.84-0.48-1.7-0.69-2.55c-1.08-0.26-2.65-0.68-3.82-0.26c-1.37,0.68-1.72,2.58-2.5,3.75c-2.06,0.5-4.85,0.86-6.88,0.44
		c-0.1-0.13-0.21-0.31-0.26-0.47c-0.6-1.59,1.79-4.85,2.53-6c1.04,0,2.06,0.02,3.09,0.02c1.42-0.39,3.45-1.04,5.41-1.41
		c3.37-0.52,9.38,0.52,13.5-1.2c0.33,0.03,0.65,0.03,0.99,0.05C964.07,617.59,964.51,621.86,964.18,624.29z"/>
	<path class="st0" d="M894.4,624.03c-3.64-2.35-0.52-9.23-5.24-11.44c-4.08-1.9-15.64,2.61-20.53,1.59
		c-0.53,0.15-0.76,0.05-0.89-0.6c1.38-2.29,6.62-8.11,9.1-9.02c1.6-0.6,3.52,0,5.17-0.62c1.02-0.42,1.21-1.85,2.02-2.42
		c1.41-0.97,3.13-0.91,3.88-2.45c0.08-0.42,0.13-0.78,0.21-1.23c-0.64-0.99-1.21-1.54-2.16-2.14c-3.55-0.52-13.85,3.99-16.84,1.46
		c0.29-1.23,0.59-2.5,0.87-3.75c0.95-1.33,3.38-1.83,2.59-4.51c-0.34-0.42-0.68-0.86-1.03-1.3c-0.98-0.08-1.95-0.1-2.93-0.18
		c-1.02,0.76-2.2,1.15-2.92,2.22c-0.41,0.57-0.8,1.2-1.19,1.82c-4.78,3.88-10.15,6.65-14.38,11.05
		c-6.69,6.88-11.3,15.93-15.19,25.55c-0.82,2.16-1.66,4.33-2.51,6.49c-0.12,2.89-0.23,5.84-0.37,8.76
		c-0.21,0.86-0.96,1.72-0.65,3.08c0.23,1.09,0.65,3.02,1.21,3.78c2.59,0.55,5.77-0.26,6.35-2.37c0.76-2.76-2.1-4.72-2.44-7.3
		c-0.38-2.87,1.41-11.39,2.32-14.05c2.46-6.88,8.38-17.65,13.45-21.95c2.88-2.19,5.77-4.4,8.67-6.62c0.19-0.02,0.34-0.02,0.5-0.02
		c0.7,1.43-0.05,4.01,0.9,5.42c1.66,2.45,7.55,1.36,10.9,1.56c0.05,0.16,0.12,0.34,0.14,0.57c-1.88,1.85-3.78,3.73-5.63,5.58
		c-0.85,1.09-1.68,2.08-2.49,3.15c-0.81,0.34-1.58,0.6-2.35,0.94c-1.23,1.28-2.46,2.53-3.71,3.81c-0.63,0.94-0.65,1.98-1.15,3.1
		c-0.25,0.55-3.6,6.23-3.88,6.39c-1.95,1.25-5.19,0.99-7.38,0.97c-0.55,0.6-1.11,1.15-1.66,1.75c-3.01,2.03-6.41,1.8-6.23,6.83
		c4.16,4.48,7.53,0.84,12.72,0.42c0.31,0.65,0.04,1.23,0.17,2.06c0.48,2.97,0.47,5.42,1.92,7.25c3.4,4.25,11.48,2.63,17.06,1.49
		c1.21,0,2.38,0.02,3.57,0.02c3.26-0.83,6.06-2.29,10.17-2.37c0.9-1.38,3.56-5.37,1.3-6.94c0.13-0.65,6.73-7.3,7.3-7.48
		c1.8-0.52,2.88,0.6,4.55-0.7c1.55-1.33,2.01-4.69,0.33-6.36C897.09,624.37,895.61,624.73,894.4,624.03z M878.6,640.16
		c-3.73,1.41-17.92,3.47-19.87-0.21c-0.61-1.25-0.27-3,0.26-3.86c1.43-0.32,6.45-1.56,8.09-1.09c1.7,0.55,3.18,2.19,5.97,1.46
		c2.01-0.47,2.27-2.14,3.73-2.94c1.41-0.31,2.76-0.65,4.18-0.96c1.16-0.03,2.5-0.13,3.34,0.13c0.01,0.13,0.09,0.26,0.12,0.42
		C882.57,635.66,879.94,637.01,878.6,640.16z M886.62,623.9c-0.73,1.23-2.78,0.16-4.51,0.47c-2.22,0.23-4.45,0.5-6.65,0.68
		c-1.37-0.37-2.55-2.32-4.38-2.08c-2.32,0.34-1.95,2.63-3.62,3.28c-1.32,0.55-4.16,0.91-5.63,0.55c-0.21-1.35,0.48-4.17,1.59-4.74
		c1.24,0.1,2.46,0.23,3.69,0.29c4-0.39,13.75-0.91,16.71-2.42c0.49-0.03,0.98-0.03,1.48-0.08
		C885.88,620.56,887.19,622.49,886.62,623.9z"/>
	<path class="st0" d="M833,615.14c0.18,0.7,0.38,1.38,0.56,2.11c0.49,0.03,4.17-1.07,5.03-1.41c1.47-2.92-0.49-5.95-0.74-9.07
		c0.03-0.1,0.06-0.18,0.1-0.23c2.01-1.17,4.81,2.55,7.87-0.26c3.61-3.29,2.96-11.21-3.27-11.13c-1.98,1.51-4.26,3.28-5.14,5.84
		c-0.62,1.8-0.35,4.15-1.34,5.58c-1.23,1.77-4.21,3.21-4.76,5.45C830.81,614.02,832.39,614.33,833,615.14z"/>
	<path class="st0" d="M1124.4,626.32c4.2,1.95,3.18-8.92,4.02-10.82c0.96-2.14,7.95-3,10.87-3.78c9.5-2.42,19.37-6.02,30.53-6.15
		c0.1,0.13,0.25,0.26,0.36,0.42c-0.24,1.72-0.69,3.05,1.43,3c0.84,1.23,1.28,2.92,2.7,3.52c4.59,1.85,7.37-4.64,6.04-9.07
		c-1.16-3.8-6.91-4.01-11.34-4.35c-0.05-0.23-0.09-0.49-0.14-0.76c2.74-3.7,5.02-9.54,3-15.95c-0.73-1.41-3.81-2.17-5.84-1.31
		c-3.61,1.51-6.75,5.68-11.15,6.33c-0.07-0.02-0.08-0.05-0.13-0.13c-0.27-2.01,1.5-4.22,0.8-6.55c-0.22-0.52-0.39-0.76-0.87-0.96
		c-0.55,0-1.09-0.03-1.59-0.1c-3.23,1.75-4.42,4.02-6.37,6.83c-0.15,0.05-0.33,0.05-0.49,0.05c-0.43-1.28-0.73-1.8-1.42-2.69
		c-4.84-0.99-6.61,10.51-9.75,12.85c-0.04-0.05-0.1-0.08-0.13-0.1c0.03-1.2,0.1-2.42,0.16-3.6c0.55-0.29,0.94-0.16,1.58-0.39
		c1.59-1.17-0.03-6.41-1.41-7.01c-1.73,0.1-3.27,1.02-3.65,2.32c0.08,0.78,0.12,1.56,0.18,2.35c-0.57,2.89-1.32,5.66-0.72,9.36
		c0.22,1.41,0.76,3.62,0.27,5.08c-0.05,0.1-0.08,0.23-0.12,0.37c-1.08,0.08-1.66-0.52-2.61-0.81c-1.61-0.44-3.96,1.04-4.63,1.98
		c-2.39,3.36-1.6,12.1-0.56,15.8C1123.71,623.14,1123.54,625.9,1124.4,626.32z M1157.66,594.46c0.31-1.28-0.16-3.23,0.49-4.2
		c1.33-2.03,5.55-2.09,7.82-3.31c1.72,0.11,1.58,2.92,1.33,4.28c-0.47,2.35-2.55,7.53-4.98,7.17c-0.04-0.1-0.1-0.26-0.13-0.34
		c0.94-1.23,4.67-3.08,3.79-5.32c-0.64-1.33-2.41-1.12-3.95-0.76c-4.57,1.09-3.39,4.46-4.74,7.9c-0.64,0.13-1.28,0.21-1.93,0.31
		c-0.06-0.18-0.13-0.36-0.17-0.6C1156.19,598.17,1157.17,596.31,1157.66,594.46z M1147.08,590.68c0.65,0.39,1.89,1.95,1.67,3.02
		c-0.53,0.96-1.08,1.95-1.63,2.92c-0.57,1.77-1.13,3.55-1.71,5.32c-0.6,0.23-1.15,0.42-2.07,0.42c-0.04-0.03-0.12-0.05-0.13-0.08
		C1143.43,596.45,1143.78,594.15,1147.08,590.68z M1138.23,596.47c0.25,0.18,0.22,0.13,0.4,0.37c0.73,1.77-0.16,6.39-1.19,7.17
		c-0.41,0.08-0.81,0.1-1.21,0.21c-0.09-0.21-0.18-0.36-0.25-0.55C1135.09,601.64,1137.25,597.59,1138.23,596.47z"/>
	<path class="st0" d="M805.82,613.21c0.89-0.7,1.85-1.51,2.29-2.66c1.49-3.96-0.65-7.19-3.7-8.18c-1.25,0.08-2.55,0.13-3.82,0.13
		c-0.99-0.26-1.16-0.99-2.74-0.89c-1.98,1.64-3.52,6.15-3.42,9.59C798.39,613.5,801.35,616.78,805.82,613.21z"/>
	<path class="st0" d="M1156.89,623.92c-0.08-0.03-0.17-0.13-0.28-0.21c-0.03-0.13-0.09-0.26-0.12-0.34
		c1.29-1.75,2.35-1.09,3.99-2.24c2.21-1.48,2.31-5.03,0.81-6.91c-0.96-0.1-1.89-0.21-2.85-0.34c-1.7,0.23-3.34,0.44-5.03,0.65
		c-5.84,1.44-20.53,2.53-18.24,9.8c3.16,1.56,7.21-0.94,9.95-1.77c1.25-0.39,3.21-1.07,3.83-0.39c-0.31,0.96-0.62,1.93-0.91,2.87
		c-3.18,1.95-6.65,2.61-10.37,4.25c-1.85,0.83-3.06,2.61-4.59,3.83c-1.28,1.04-3.86,4.12-2.24,6.6c0.82,1.3,3.97,1.67,6.18,1.09
		c2.3-0.68,3.94-3.08,5.79-4.38c0.54-0.37,6.91-2.32,7.59-2.45c2.39,3.86-0.57,9.57-3.27,11.47c-1.34,0.94-2.65,1.38-3.49,2.79
		c-0.46,0.68,0.28,0.89,0.05,1.83c-0.77,3.18-1.94,8.08,3.37,6c2.48-0.99,2.32-3.68,3.79-5.6c0.56-0.39,1.11-0.84,1.7-1.25
		c4.16-4.46,5.85-9.83,5.41-18.14c2.76-1.93,9.37-0.18,13.01-1.46c2.05-1.02,1.23-5.71-0.52-6.39
		C1168.28,622.36,1159.93,623.79,1156.89,623.92z"/>
	<path class="st0" d="M1050.46,596.99c-0.31-6.86-17.52-1.3-23.11-2.32c-1.55-2.79,1.15-7.27-3.53-7.43
		c-4.44,2.58-2.96,2.84-2.5,7.59c-2.26,2.4-17.47,2.08-21.89,3.34c-2.16,0.6-5.63,1.28-4.76,4.54c0.6,2.37,3.68,3.08,6.71,2.35
		c6.05-1.54,12.06-3.68,18.76-4.15c0.04,0.16,0.07,0.34,0.13,0.5c-1.27,1.67-12.84,6.41-15.58,7.38c-2.84,0.91-3.92,1.51-4.56,4.56
		c-0.01,0.86-0.05,1.77-0.05,2.66c1.06,2.45,4.19,2.14,6.43,1.1c2.51-1.17,1.94-2.74,3.36-3.94c1.58-1.41,7.11-3.88,9.75-4.12
		c0.09,0.16,0.15,0.26,0.25,0.39c1,2.63-3.27,2.19-4.97,2.71c-3.4,1.09-4.09,2.5-3.41,5.79c-0.06,0.05-0.1,0.05-0.13,0.13
		c-0.81,1.17-7.93,3.86-9.75,4.3c-3.83,1.09-10.35,0.37-8.69,5.68c0.68,1.36,5.03,2.76,7.46,2.01c1.11-0.5,2.26-1.04,3.4-1.56
		c4.42-1.51,10.74-2.16,16.06-2.42c0.1,0.1,0.18,0.15,0.27,0.26c0,0.1,0,0.21,0,0.36v0.1c-2.42,1.56-6.8,0.91-10.05,1.64
		c-3.14,0.7-6.28,1.38-9.48,2.14c-0.98,0.29-2.02,0.63-3.02,0.91c-2.84,0.16-7.29,0.7-10.07,1.54c-0.34,0.63-0.73,1.41-0.41,2.37
		c1.11,2.4,6.52,1.25,9.37,0.6c4.48-1.07,9.93-1.15,15.24-2.17c1.63-0.18,3.27-0.37,4.91-0.52c1.67,0.18,3.45-0.76,5.06-0.13
		c0.35,0.18,0.29,0.18,0.49,0.47c-2.92,5.01-12.32,1.54-17.54,2.84c-2.18,0.52-6.51,2.4-4.78,5.42c1.79,3.44,17.22,0.03,21.19-0.1
		c0.17,0.26,0.34,0.5,0.53,0.76c-1.12,2.97-2.58,8.34-5.66,9.36c-1.75,0.1-3.44,0.21-5.19,0.29c-0.01,0.34-0.06,0.65-0.09,1.04
		c1.45,1.38,1.23,3.02,2.22,4.17c0.3,0.44,0.51,0.49,1.13,0.62c4.98-2.79,9.08-5.86,11.9-10.69c0.87-1.56,1.84-5.34,2.79-6.52
		c1.24-1.54,5.34-1.33,7.08-2.37c2.51-1.56,3.68-5.11,5.71-7.43c2.63-3.08,9.06-1.25,8.92-7.06c-1.85-1.85-4.12-1.17-5.49-2.3
		c-0.98-0.83-1.23-2.4-2.32-3.18c-2.49-1.72-8.2-2.08-11.58-0.96c-0.29-0.26-0.22-0.13-0.41-0.5c0.47-0.42,0.97-0.89,1.44-1.28
		c0.77-1.15,0.48-3.62,1.6-4.35c2.26-1.59,9.92-2.61,8.43-6.94c-0.8-2.24-5.37-3.65-8.36-3.44c-1.56,0-3.12,0.1-4.68,0.13
		c-0.13-0.13-0.26-0.16-0.38-0.26v-0.13C1032.81,598.22,1048.86,600.3,1050.46,596.99z M1011.07,621.63
		c-0.04-0.1-0.05-0.16-0.12-0.21c1.58-0.73,3.15-1.43,4.76-2.14c1.02-0.21,2.06-0.39,3.05-0.6c0.3,0,0.57,0,0.86,0
		c0.15,0.34,0.27,0.6,0.4,0.99C1018.16,621,1014.2,621.63,1011.07,621.63z M1029.52,633.21c-0.38-0.18-0.37-0.26-0.59-0.63
		c0.59-2.11,1.83-1.48,3.73-2.32c0.77,0,1.56,0.05,2.35,0.1c0.23,0.29,0.3,0.26,0.39,0.84
		C1034.96,631.95,1030.57,633.46,1029.52,633.21z M1031.97,623.14c1.34-0.03,2.98-0.1,3.95,0.13c0.08,0.18,0.18,0.39,0.26,0.62
		c-0.8,1.04-3.65,1.31-5.4,1.38c-0.21-0.18-0.39-0.34-0.63-0.5C1030.24,623.4,1031.01,623.64,1031.97,623.14z M1028.8,607.21
		c0.48-1.09,1.59-1.04,2.67-1.51c0.95-0.1,1.9-0.13,2.83-0.13c0.13,0.13,0.27,0.26,0.38,0.34c-0.25,1.56-3.7,4.25-5.68,3.6
		c-0.12,0-0.26-0.05-0.37-0.08C1028.44,608.65,1028.49,607.81,1028.8,607.21z"/>
	<path class="st0" d="M1093.18,629.71c-0.14-0.62-0.3-1.25-0.42-1.88c-0.62-1.51-2.36-1.95-4.61-1.83
		c-0.81,0.32-1.63,0.65-2.44,0.94c-4.53,3.31,0.81,7.98,2.63,10.5c2.33,3.26,5.37,6.41,8.86,8.4c1.62,0.55,3.23,1.12,4.84,1.72
		c2.36,1.25,5.3,3.13,8.37,3.44c0.79-0.57,0.98-1.59,1.67-2.11c1.71-0.52,3.44-1.04,5.15-1.54c1.62-2.94-2.14-5.6-3.65-6.67
		c-1.67-1.17-3.49-1.62-5.5-2.5c-4.24-2.03-8.96-4.15-12.63-6.83C1094.91,630.94,1093.6,630.21,1093.18,629.71z"/>
	<path class="st0" d="M1089.75,604.11c-2.33-3.78,7.31-19.53-2.61-19.14c-1.72,0.94-4.35,2.63-3.7,5.53
		c0.33,1.2,0.66,2.37,0.96,3.55c-0.4,4.09-1.51,8.24-2.89,11.52c-4.93,1.9-19.67,4.17-17.54,11.37c2.12,4.2,4.51,5.34,10.25,5.01
		c0.1,0.1,0.18,0.23,0.26,0.39c-2.49,6.57-7.3,13.53-11.42,18.8c-3.05,3.91-7.25,7.35-10.43,11.42c0.07,0.26,0.1,0.55,0.16,0.81
		c0.34,0.1,0.68,0.18,0.99,0.23c6.96-4.67,15.22-11.68,20.07-18.3c1.88-2.55,3.88-5.27,5.58-7.95c1.66-2.55,2.42-5.71,4.73-7.64
		c3.53-2.97,15.59-3.52,17.3-7.77c0.35-0.96,0.44-2.84,0.1-4.07C1100.27,603.15,1095.09,603.85,1089.75,604.11z"/>
</g>
<g>
	<defs>
		<rect id="SVGID_1_" x="549.14" y="196.58" width="819.84" height="717.84"/>
	</defs>
	<clipPath id="SVGID_00000127028555921720267180000005159156695271812535_">
		<use xlink:href="#SVGID_1_"  style="overflow:visible;"/>
	</clipPath>
	<path style="clip-path:url(#SVGID_00000127028555921720267180000005159156695271812535_);fill:#346C9C;" d="M1342.62,811.06h-768
		c-13.66,0-25.6-11.95-25.6-25.6v-563.2c0-13.66,11.94-25.6,25.6-25.6h768c13.65,0,25.6,11.95,25.6,25.6v563.2
		C1368.22,799.11,1356.27,811.06,1342.62,811.06L1342.62,811.06z M600.22,759.86h716.8v-512h-716.8V759.86z M1240.22,913.46h-563.2
		c-13.65,0-25.6-11.95-25.6-25.6c0-13.65,11.95-25.6,25.6-25.6h563.2c13.65,0,25.6,11.94,25.6,25.6
		C1265.82,901.51,1253.87,913.46,1240.22,913.46L1240.22,913.46z M1240.22,913.46"/>
</g>
<path class="st2" d="M1097.72,524.35c-16.21-6.08-22.29,0-14.18,14.18l95.23,208.71c6.08,16.21,16.21,14.18,18.24-2.03l18.24-87.13
	l87.13-18.24c16.21-4.05,18.24-12.16,2.03-18.24L1097.72,524.35z M1097.72,524.35"/>
</svg>
